<svg width="32" height="62" viewBox="0 0 32 62" fill="none" xmlns="http://www.w3.org/2000/svg">
<path d="M10.1464 32.6089L13.9197 28.8355L5.66636 20.5955C5.02636 19.9555 3.91969 20.1289 3.51969 20.9555C2.57302 22.9422 2.91969 25.3822 4.55969 27.0355L10.1464 32.6089ZM19.1864 30.1955C21.2264 31.1422 24.093 30.4755 26.213 28.3555C28.7597 25.8089 29.253 22.1555 27.293 20.1955C25.3464 18.2489 21.693 18.7289 19.133 21.2755C17.013 23.3955 16.3464 26.2622 17.293 28.3022L5.21302 40.3822C4.96372 40.6315 4.82366 40.9696 4.82366 41.3222C4.82366 41.6748 4.96372 42.0129 5.21302 42.2622C5.46233 42.5115 5.80046 42.6516 6.15302 42.6516C6.50559 42.6516 6.84372 42.5115 7.09302 42.2622L15.3464 34.0355L23.5864 42.2755C23.7098 42.399 23.8563 42.4969 24.0176 42.5637C24.1789 42.6305 24.3518 42.6649 24.5264 42.6649C24.7009 42.6649 24.8738 42.6305 25.0351 42.5637C25.1964 42.4969 25.3429 42.399 25.4664 42.2755C25.5898 42.1521 25.6877 42.0055 25.7545 41.8443C25.8213 41.683 25.8557 41.5101 25.8557 41.3355C25.8557 41.161 25.8213 40.9881 25.7545 40.8268C25.6877 40.6655 25.5898 40.519 25.4664 40.3955L17.2264 32.1555L19.1864 30.1955Z" fill="#02E4C0"/>
</svg>
