<svg width="41" height="53" viewBox="0 0 41 53" fill="none" xmlns="http://www.w3.org/2000/svg">
<path d="M31.775 17C29.315 17 26.9917 17.9889 25.3346 19.7017L13.325 30.7203C12.2317 31.8504 10.7796 32.4684 9.225 32.4684C6.03042 32.4684 3.41667 29.8021 3.41667 26.5C3.41667 23.198 6.03042 20.5316 9.225 20.5316C10.7796 20.5316 12.2317 21.1497 13.3933 22.3504L15.3238 24.1162L17.9375 21.75L15.7508 19.79C14.8953 18.9024 13.8782 18.1988 12.7581 17.7199C11.6379 17.2411 10.4371 16.9964 9.225 17C4.13417 17 0 21.2733 0 26.5C0 31.7268 4.13417 36 9.225 36C11.685 36 14.0083 35.0112 15.6654 33.2983L27.675 22.2798C28.7683 21.1497 30.2204 20.5316 31.775 20.5316C34.9696 20.5316 37.5833 23.198 37.5833 26.5C37.5833 29.8021 34.9696 32.4684 31.775 32.4684C30.2375 32.4684 28.7683 31.8504 27.6067 30.6496L25.625 28.8662L23.0625 31.2324L25.2492 33.21C26.107 34.0932 27.125 34.7927 28.2448 35.2684C29.3646 35.7442 30.5643 35.9868 31.775 35.9823C36.8658 35.9823 41 31.7268 41 26.5C41 21.2026 36.8658 17 31.775 17Z" fill="#02E4C0"/>
</svg>
