<svg width="33" height="60" viewBox="0 0 33 60" fill="none" xmlns="http://www.w3.org/2000/svg">
<path d="M14.0495 28.395C15.5285 30.855 15.311 33.75 13.542 34.92C11.773 36.06 9.134 34.995 7.6405 32.535C6.1615 30.075 6.3935 27.15 8.1625 26.01C9.9315 24.87 12.5705 25.935 14.0495 28.395ZM16.5 38.625C19.4 38.625 20.125 37.5 20.125 37.5C20.125 37.5 19.4 40.5 16.5 40.5C13.6 40.5 12.875 37.545 12.875 37.5C12.875 37.5 13.6 38.625 16.5 38.625ZM24.8375 26.01C26.6065 27.15 26.8385 30.075 25.3595 32.535C23.866 34.995 21.227 36.06 19.458 34.92C17.689 33.75 17.4715 30.855 18.9505 28.395C20.4295 25.935 23.0685 24.87 24.8375 26.01ZM16.5 42C20.125 42 28.1 34.29 28.1 28.5C28.1 22.71 22.8945 18 16.5 18C10.1055 18 4.9 22.71 4.9 28.5C4.9 34.29 12.875 42 16.5 42ZM16.5 15C24.475 15 31 21.06 31 28.5C31 34.62 22.764 45 16.5 45C10.236 45 2 34.62 2 28.5C2 21.06 8.525 15 16.5 15Z" fill="#02E4C0"/>
</svg>
